<svg xmlns="http://www.w3.org/2000/svg" xmlns:xlink="http://www.w3.org/1999/xlink" id="intersect-logo-2022"
    data-name="intersect-logo-2022" width="512" height="512" viewBox="0 0 512 512">
    <metadata>
        <rdf:RDF xmlns:rdf="http://www.w3.org/1999/02/22-rdf-syntax-ns#" xmlns:schema="http://schema.org/">
            <rdf:Description rdf:about="" xmlns:dc="http://purl.org/dc/elements/1.1/"
                xmlns:xmp="http://ns.adobe.com/xap/1.0/" xmlns:xmpRights="http://ns.adobe.com/xap/1.0/rights/">
                <dc:creator>
                    <rdf:Seq>
                        <rdf:li>Robert Lodico</rdf:li>
                    </rdf:Seq>
                </dc:creator>
                <dc:title>
                    <rdf:Alt>
                        <rdf:li xml:lang="x-default">Intersect Logo 2022</rdf:li>
                    </rdf:Alt>
                </dc:title>
                <dc:rights>
                    <rdf:Alt>
                        <rdf:li xml:lang="x-default">Copyright (c) Intersect Engine 2022</rdf:li>
                    </rdf:Alt>
                </dc:rights>
                <xmpRights:WebStatement>https://github.com/AscensionGameDev/Intersect-Engine</xmpRights:WebStatement>
            </rdf:Description>
        </rdf:RDF>
    </metadata>
    <defs>
        <style type="text/css">
            path {
                fill: #ffffff;
            }
        </style>
    </defs>
    <path id="logo" data-name="logo"
        d="M388.4,332.8h0a875.94,875.94,0,0,0-265.8,0h0A877.741,877.741,0,0,0,255.5,102.4h0A877.717,877.717,0,0,0,388.4,332.8ZM104.052,373.247L34,384,255.5,512,477,384l-70.052-10.753A998.191,998.191,0,0,0,104.052,373.247ZM78.329,328.654L34,384V128L255.5,0,229.778,66.1A1000.23,1000.23,0,0,1,78.329,328.654ZM281.223,66.1L255.5,0,477,128V384l-44.33-55.346A1000.192,1000.192,0,0,1,281.223,66.1Z"
        transform="translate(0.5)" />
</svg>